<?xml version="1.0" encoding="UTF-8"?>
<svg xmlns="http://www.w3.org/2000/svg" viewBox="0 0 512 512">
    <rect width="512" height="512" fill="#1E40AF" rx="96" ry="96" />
    <circle cx="256" cy="256" r="144" fill="#FFFFFF" opacity="0.95" />
    <path d="M308 180c-5.52 0-10 4.48-10 10s4.48 10 10 10 10-4.48 10-10-4.48-10-10-10z"
        fill="#1E40AF" />
    <path fill="#1E40AF"
        d="M256 150c-38.6 0-70 31.4-70 70 0 13.8 4 26.6 10.8 37.4L150 304.2c-2.5 2.5-2.5 6.6 0 9.2s6.6 2.5 9.2 0l46.8-46.8c11 7 24 11.2 38 11.4v32c0 3.3 2.7 6 6 6s6-2.7 6-6v-32c14-.2 27-4.4 38-11.4l46.8 46.8c2.5 2.5 6.6 2.5 9.2 0s2.5-6.6 0-9.2L300 257.4c6.8-10.8 10.8-23.6 10.8-37.4 0-38.6-31.4-70-70-70zm0 120c-27.6 0-50-22.4-50-50s22.4-50 50-50 50 22.4 50 50-22.4 50-50 50z" />
    <path fill="#1E40AF"
        d="M390 180v-20c0-5.5-4.5-10-10-10h-20c-5.5 0-10 4.5-10 10v20c0 5.5 4.5 10 10 10h20c5.5 0 10-4.5 10-10zM162 180v-20c0-5.5-4.5-10-10-10h-20c-5.5 0-10 4.5-10 10v20c0 5.5 4.5 10 10 10h20c5.5 0 10-4.5 10-10zM390 330v-20c0-5.5-4.5-10-10-10h-20c-5.5 0-10 4.5-10 10v20c0 5.5 4.5 10 10 10h20c5.5 0 10-4.5 10-10zM162 330v-20c0-5.5-4.5-10-10-10h-20c-5.5 0-10 4.5-10 10v20c0 5.5 4.5 10 10 10h20c5.5 0 10-4.5 10-10zM293 370h-74c-5.5 0-10 4.5-10 10v20c0 5.5 4.5 10 10 10h74c5.5 0 10-4.5 10-10v-20c0-5.5-4.5-10-10-10zM293 102h-74c-5.5 0-10 4.5-10 10v20c0 5.5 4.5 10 10 10h74c5.5 0 10-4.5 10-10v-20c0-5.5-4.5-10-10-10z" />
</svg>